<?xml version="1.0" encoding="iso-8859-1"?>
<!-- Generator: Adobe Illustrator 19.0.0, SVG Export Plug-In . SVG Version: 6.00 Build 0)  -->
<svg version="1.1" id="Capa_1" xmlns="http://www.w3.org/2000/svg" xmlns:xlink="http://www.w3.org/1999/xlink" x="0px" y="0px"
	 viewBox="0 0 512 512" style="enable-background:new 0 0 512 512;" xml:space="preserve">
<g>
	<g>
		<path d="M256,0C114.516,0,0,114.497,0,256c0,141.483,114.497,256,256,256c141.484,0,256-114.497,256-256
			C512,114.517,397.503,0,256,0z M179.672,43.154c-18.976,24.15-32.411,54.72-41.322,84.252
			c-14.826-9.037-28.655-19.814-41.172-32.171C120.97,71.723,149.058,54.11,179.672,43.154z M30,256
			c0-50.725,16.604-98.895,47.232-138.315c16.079,15.678,34.043,29.063,53.365,39.92C123.981,188.356,120.5,221.677,120.5,256
			s3.481,67.644,10.097,98.395c-19.322,10.857-37.286,24.242-53.365,39.92C46.604,354.895,30,306.725,30,256z M97.177,416.765
			c12.517-12.357,26.346-23.134,41.172-32.171c8.908,29.518,22.341,60.094,41.322,84.252
			C149.057,457.891,120.969,440.278,97.177,416.765z M241,479.476c-39.328-13.125-64.166-68.866-75.544-108.983
			c23.765-10.401,49.312-16.72,75.544-18.472V479.476z M241,256v65.957c-28.585,1.685-56.481,8.155-82.582,18.927
			c-5.195-26.628-7.918-55.305-7.918-84.884s2.723-58.256,7.918-84.884c26.1,10.772,53.996,17.242,82.582,18.927V256z M241,159.979
			c-26.232-1.753-51.779-8.071-75.544-18.472c11.347-40.006,36.17-95.843,75.544-108.983V159.979z M414.823,95.235
			c-12.517,12.357-26.346,23.134-41.172,32.171c-8.908-29.517-22.341-60.094-41.322-84.252
			C362.943,54.109,391.031,71.722,414.823,95.235z M271,32.524c39.328,13.125,64.166,68.866,75.544,108.983
			c-23.765,10.401-49.312,16.72-75.544,18.472V32.524z M271,256v-65.957c28.585-1.685,56.481-8.155,82.582-18.927
			c5.195,26.628,7.918,55.305,7.918,84.884s-2.723,58.256-7.918,84.884c-26.1-10.772-53.996-17.242-82.582-18.927V256z M271,479.476
			V352.021c26.232,1.753,51.779,8.071,75.544,18.472C335.197,410.499,310.374,466.336,271,479.476z M332.329,468.846
			c18.974-24.15,32.41-54.72,41.322-84.252c14.826,9.037,28.656,19.814,41.172,32.171
			C391.031,440.278,362.943,457.891,332.329,468.846z M434.769,394.314c-16.079-15.678-34.043-29.063-53.366-39.92
			c6.616-30.75,10.097-64.071,10.097-98.395c0-34.324-3.481-67.644-10.097-98.395c19.322-10.856,37.286-24.241,53.366-39.92
			C465.396,157.105,482,205.275,482,256C482,306.725,465.396,354.895,434.769,394.314z"/>
	</g>
</g>
<g>
</g>
<g>
</g>
<g>
</g>
<g>
</g>
<g>
</g>
<g>
</g>
<g>
</g>
<g>
</g>
<g>
</g>
<g>
</g>
<g>
</g>
<g>
</g>
<g>
</g>
<g>
</g>
<g>
</g>
</svg>
