<?xml version="1.0" encoding="iso-8859-1"?>
<!-- Generator: Adobe Illustrator 18.0.0, SVG Export Plug-In . SVG Version: 6.00 Build 0)  -->
<!DOCTYPE svg PUBLIC "-//W3C//DTD SVG 1.1//EN" "http://www.w3.org/Graphics/SVG/1.1/DTD/svg11.dtd">
<svg version="1.1" id="Capa_1" xmlns="http://www.w3.org/2000/svg" xmlns:xlink="http://www.w3.org/1999/xlink" x="0px" y="0px"
	 viewBox="0 0 296.639 296.639" style="enable-background:new 0 0 296.639 296.639;" xml:space="preserve">
<g>
	<path d="M293.357,138.957c-2.621-3.28-65.112-80.336-145.038-80.336c-79.927,0-142.417,77.056-145.038,80.336
		c-4.375,5.476-4.375,13.251,0,18.727c2.621,3.28,65.111,80.335,145.038,80.335c79.926,0,142.417-77.055,145.038-80.334
		C297.732,152.207,297.732,144.432,293.357,138.957z M148.319,208.018c-50.516,0-95.235-40.82-113.213-59.698
		c17.985-18.886,62.701-59.699,113.213-59.699c50.511,0,95.227,40.812,113.212,59.699
		C243.546,167.206,198.83,208.018,148.319,208.018z"/>
	<circle cx="146.955" cy="148.319" r="42.948"/>
</g>
<g>
</g>
<g>
</g>
<g>
</g>
<g>
</g>
<g>
</g>
<g>
</g>
<g>
</g>
<g>
</g>
<g>
</g>
<g>
</g>
<g>
</g>
<g>
</g>
<g>
</g>
<g>
</g>
<g>
</g>
</svg>
