<svg xmlns="http://www.w3.org/2000/svg" width="24" height="24" viewBox="0 0 24 24">
	<circle cx="5" cy="7" r="2.8"/>
	<circle cx="5" cy="17" r="2.79"/>
	<path d="M21,5.95H11c-0.55,0-1-0.45-1-1v0c0-0.55,0.45-1,1-1h10c0.55,0,1,0.45,1,1v0C22,5.5,21.55,5.95,21,5.95z"/>
	<path d="M17,10.05h-6c-0.55,0-1-0.45-1-1v0c0-0.55,0.45-1,1-1h6c0.55,0,1,0.45,1,1v0C18,9.6,17.55,10.05,17,10.05z"/>
	<path d="M21,15.95H11c-0.55,0-1-0.45-1-1v0c0-0.55,0.45-1,1-1h10c0.55,0,1,0.45,1,1v0C22,15.5,21.55,15.95,21,15.95z" />
	<path d="M17,20.05h-6c-0.55,0-1-0.45-1-1v0c0-0.55,0.45-1,1-1h6c0.55,0,1,0.45,1,1v0C18,19.6,17.55,20.05,17,20.05z"/>
</svg>
