<svg xmlns="http://www.w3.org/2000/svg" width="128" height="128" fill="none" viewBox="0 0 128 128">
  <path fill="#fff" d="M110.857 116.627c5.714-.286 9.143-3.886 9.143-9.6V33.884c0-5.715-3.429-8.972-9.143-8.686L50 28.241c-9.33.475-14.304-1.151-22.571-8.529L17.143 10.57c-2.81.141-5.069 1.083-6.637 2.685C8.886 14.908 8 17.266 8 20.169l10.286 9.143c7.882 6.932 10.338 11.265 10.285 20v62.286c0 5.714 3.429 8.971 9.143 8.686l73.143-3.657Z"/>
  <path fill="#000" d="M18.286 29.312 8 20.17v65.429c.016 10.46 2.877 15.473 10.286 23.714l10.285 11.429v-71.43c.053-8.735-2.403-13.068-10.285-20Z"/>
  <path fill="#fff" d="m17.143 10.57 10.286 9.142C35.696 27.09 40.67 28.716 50 28.241l60.857-3.043 9.143-.457-10.286-9.143c-7.633-6.781-12.444-9.03-22.515-8.531l-.056.002-70 3.5Z"/>
  <path stroke="#000" stroke-linecap="round" stroke-linejoin="round" stroke-width="9.143" d="m120 24.74-10.286-9.142c-7.633-6.781-12.444-9.03-22.515-8.531M120 24.74v9.143m0-9.143-9.143.457M28.571 120.74l-10.285-11.429C10.876 101.071 8.016 96.058 8 85.598V20.17m20.571 100.57v-9.143m0 9.143 9.143-.457M8 20.169c0-2.903.885-5.26 2.506-6.915 1.568-1.602 3.826-2.544 6.637-2.684M8 20.17l10.286 9.142c7.882 6.932 10.338 11.265 10.285 20v62.286M17.143 10.57l10.286 9.142C35.696 27.09 40.67 28.716 50 28.241l60.857-3.043M17.143 10.569l70-3.5m0 0 .056-.002m-.056.002.056-.002M120 33.884v73.143c0 5.714-3.429 9.314-9.143 9.6l-73.143 3.657M120 33.884c0-5.715-3.429-8.972-9.143-8.686m-82.286 86.4c0 5.714 3.429 8.971 9.143 8.686"/>
  <path fill="#C084FC" d="M51.724 76.166a.857.857 0 1 0 .17 1.706c8.249-.825 14.057.84 17.808 4.397 3.76 3.565 5.631 9.197 5.631 16.693a.857.857 0 1 0 1.715 0c0-7.481 1.869-13.543 5.694-17.932 3.82-4.384 9.688-7.212 17.915-8.034a.857.857 0 0 0-.171-1.706c-8.24.824-14.047-.84-17.801-4.398-3.763-3.565-5.637-9.197-5.637-16.692a.857.857 0 1 0-1.715 0c0 7.482-1.865 13.543-5.687 17.932-3.818 4.383-9.686 7.21-17.922 8.034Z"/>
  <path fill="url(#a)" fill-opacity=".3" d="M51.724 76.166a.857.857 0 1 0 .17 1.706c8.249-.825 14.057.84 17.808 4.397 3.76 3.565 5.631 9.197 5.631 16.693a.857.857 0 1 0 1.715 0c0-7.481 1.869-13.543 5.694-17.932 3.82-4.384 9.688-7.212 17.915-8.034a.857.857 0 0 0-.171-1.706c-8.24.824-14.047-.84-17.801-4.398-3.763-3.565-5.637-9.197-5.637-16.692a.857.857 0 1 0-1.715 0c0 7.482-1.865 13.543-5.687 17.932-3.818 4.383-9.686 7.21-17.922 8.034Z"/>
  <path stroke="#C084FC" stroke-linejoin="round" stroke-width="1.714" d="M51.724 76.166a.857.857 0 1 0 .17 1.706c8.249-.825 14.057.84 17.808 4.397 3.76 3.565 5.631 9.197 5.631 16.693a.857.857 0 1 0 1.715 0c0-7.481 1.869-13.543 5.694-17.932 3.82-4.384 9.688-7.212 17.915-8.034a.857.857 0 0 0-.171-1.706c-8.24.824-14.047-.84-17.801-4.398-3.763-3.565-5.637-9.197-5.637-16.692a.857.857 0 1 0-1.715 0c0 7.482-1.865 13.543-5.687 17.932-3.818 4.383-9.686 7.21-17.922 8.034Z"/>
  <path fill="#FDCC80" d="M45.657 56.214a.571.571 0 1 0 .114 1.138c3.681-.369 6.232.378 7.867 1.928 1.64 1.556 2.476 4.031 2.476 7.377a.571.571 0 0 0 1.143 0c0-3.337.834-6.016 2.517-7.947 1.68-1.928 4.271-3.186 7.94-3.553a.571.571 0 1 0-.114-1.137c-3.677.368-6.228-.379-7.864-1.929-1.642-1.556-2.479-4.03-2.479-7.377a.571.571 0 1 0-1.143 0c0 3.337-.831 6.016-2.514 7.948-1.678 1.927-4.27 3.185-7.943 3.552Z"/>
  <path fill="url(#b)" d="M45.657 56.214a.571.571 0 1 0 .114 1.138c3.681-.369 6.232.378 7.867 1.928 1.64 1.556 2.476 4.031 2.476 7.377a.571.571 0 0 0 1.143 0c0-3.337.834-6.016 2.517-7.947 1.68-1.928 4.271-3.186 7.94-3.553a.571.571 0 1 0-.114-1.137c-3.677.368-6.228-.379-7.864-1.929-1.642-1.556-2.479-4.03-2.479-7.377a.571.571 0 1 0-1.143 0c0 3.337-.831 6.016-2.514 7.948-1.678 1.927-4.27 3.185-7.943 3.552Z"/>
  <path stroke="#FDCC80" stroke-linejoin="round" stroke-width="1.143" d="M45.657 56.214a.571.571 0 1 0 .114 1.138c3.681-.369 6.232.378 7.867 1.928 1.64 1.556 2.476 4.031 2.476 7.377a.571.571 0 0 0 1.143 0c0-3.337.834-6.016 2.517-7.947 1.68-1.928 4.271-3.186 7.94-3.553a.571.571 0 1 0-.114-1.137c-3.677.368-6.228-.379-7.864-1.929-1.642-1.556-2.479-4.03-2.479-7.377a.571.571 0 1 0-1.143 0c0 3.337-.831 6.016-2.514 7.948-1.678 1.927-4.27 3.185-7.943 3.552Z"/>
  <path fill="#FDCC80" d="M88.543 62.897a.286.286 0 0 0 .057.568c1.23-.123 2.064.129 2.59.628.53.503.81 1.311.81 2.43a.286.286 0 1 0 .571 0c0-1.114.279-1.997.83-2.63.549-.63 1.402-1.048 2.627-1.17a.286.286 0 0 0-.056-.57c-1.23.124-2.063-.128-2.59-.627-.53-.503-.81-1.311-.81-2.43a.286.286 0 1 0-.572 0c0 1.114-.278 1.997-.828 2.63-.55.63-1.402 1.048-2.629 1.17Z"/>
  <path fill="url(#c)" d="M88.543 62.897a.286.286 0 0 0 .057.568c1.23-.123 2.064.129 2.59.628.53.503.81 1.311.81 2.43a.286.286 0 1 0 .571 0c0-1.114.279-1.997.83-2.63.549-.63 1.402-1.048 2.627-1.17a.286.286 0 0 0-.056-.57c-1.23.124-2.063-.128-2.59-.627-.53-.503-.81-1.311-.81-2.43a.286.286 0 1 0-.572 0c0 1.114-.278 1.997-.828 2.63-.55.63-1.402 1.048-2.629 1.17Z"/>
  <path stroke="#FDCC80" stroke-linejoin="round" stroke-width=".571" d="M88.543 62.897a.286.286 0 0 0 .057.568c1.23-.123 2.064.129 2.59.628.53.503.81 1.311.81 2.43a.286.286 0 1 0 .571 0c0-1.114.279-1.997.83-2.63.549-.63 1.402-1.048 2.627-1.17a.286.286 0 0 0-.056-.57c-1.23.124-2.063-.128-2.59-.627-.53-.503-.81-1.311-.81-2.43a.286.286 0 1 0-.572 0c0 1.114-.278 1.997-.828 2.63-.55.63-1.402 1.048-2.629 1.17Z"/>
  <path fill="#FDCC80" d="M82.257 90.84a.286.286 0 0 0 .057.568c1.035-.103 1.724.109 2.158.52.436.413.67 1.084.67 2.024a.286.286 0 0 0 .572 0c0-.936.234-1.671.691-2.196.456-.523 1.166-.874 2.195-.976a.286.286 0 0 0-.057-.569c-1.033.103-1.723-.109-2.157-.52-.436-.413-.672-1.084-.672-2.024a.286.286 0 1 0-.571 0c0 .936-.233 1.672-.69 2.196-.456.523-1.166.874-2.196.977Z"/>
  <path fill="url(#d)" d="M82.257 90.84a.286.286 0 0 0 .057.568c1.035-.103 1.724.109 2.158.52.436.413.67 1.084.67 2.024a.286.286 0 0 0 .572 0c0-.936.234-1.671.691-2.196.456-.523 1.166-.874 2.195-.976a.286.286 0 0 0-.057-.569c-1.033.103-1.723-.109-2.157-.52-.436-.413-.672-1.084-.672-2.024a.286.286 0 1 0-.571 0c0 .936-.233 1.672-.69 2.196-.456.523-1.166.874-2.196.977Z"/>
  <path stroke="#FDCC80" stroke-linejoin="round" stroke-width=".571" d="M82.257 90.84a.286.286 0 0 0 .057.568c1.035-.103 1.724.109 2.158.52.436.413.67 1.084.67 2.024a.286.286 0 0 0 .572 0c0-.936.234-1.671.691-2.196.456-.523 1.166-.874 2.195-.976a.286.286 0 0 0-.057-.569c-1.033.103-1.723-.109-2.157-.52-.436-.413-.672-1.084-.672-2.024a.286.286 0 1 0-.571 0c0 .936-.233 1.672-.69 2.196-.456.523-1.166.874-2.196.977Z"/>
  <path fill="#FDCC80" d="M60.557 86.039a.143.143 0 0 0 .029.284c.763-.076 1.286.079 1.62.396.335.317.508.825.508 1.52a.143.143 0 1 0 .286 0c0-.692.173-1.244.518-1.641.345-.396.879-.656 1.64-.732a.143.143 0 0 0-.03-.284c-.761.076-1.285-.08-1.619-.396-.335-.318-.509-.826-.509-1.52a.143.143 0 0 0-.286 0c0 .692-.172 1.244-.518 1.64-.344.397-.878.657-1.639.733Z"/>
  <path fill="url(#e)" d="M60.557 86.039a.143.143 0 0 0 .029.284c.763-.076 1.286.079 1.62.396.335.317.508.825.508 1.52a.143.143 0 1 0 .286 0c0-.692.173-1.244.518-1.641.345-.396.879-.656 1.64-.732a.143.143 0 0 0-.03-.284c-.761.076-1.285-.08-1.619-.396-.335-.318-.509-.826-.509-1.52a.143.143 0 0 0-.286 0c0 .692-.172 1.244-.518 1.64-.344.397-.878.657-1.639.733Z"/>
  <path stroke="#FDCC80" stroke-linejoin="round" stroke-width=".286" d="M60.557 86.039a.143.143 0 0 0 .029.284c.763-.076 1.286.079 1.62.396.335.317.508.825.508 1.52a.143.143 0 1 0 .286 0c0-.692.173-1.244.518-1.641.345-.396.879-.656 1.64-.732a.143.143 0 0 0-.03-.284c-.761.076-1.285-.08-1.619-.396-.335-.318-.509-.826-.509-1.52a.143.143 0 0 0-.286 0c0 .692-.172 1.244-.518 1.64-.344.397-.878.657-1.639.733Z"/>
  <defs>
    <linearGradient id="a" x1="76.191" x2="76.191" y1="50.2" y2="98.962" gradientUnits="userSpaceOnUse">
      <stop stop-color="#A855F7"/>
      <stop offset="1" stop-color="#fff" stop-opacity="0"/>
    </linearGradient>
    <linearGradient id="b" x1="56.686" x2="56.686" y1="44.714" y2="66.657" gradientUnits="userSpaceOnUse">
      <stop stop-color="#FFE171"/>
      <stop offset="1" stop-color="#fff" stop-opacity="0"/>
    </linearGradient>
    <linearGradient id="c" x1="92.286" x2="92.286" y1="59.095" y2="66.524" gradientUnits="userSpaceOnUse">
      <stop stop-color="#FFE171"/>
      <stop offset="1" stop-color="#fff" stop-opacity="0"/>
    </linearGradient>
    <linearGradient id="d" x1="85.429" x2="85.429" y1="87.667" y2="93.952" gradientUnits="userSpaceOnUse">
      <stop stop-color="#FFE171"/>
      <stop offset="1" stop-color="#fff" stop-opacity="0"/>
    </linearGradient>
    <linearGradient id="e" x1="62.857" x2="62.857" y1="83.667" y2="88.238" gradientUnits="userSpaceOnUse">
      <stop stop-color="#FFE171"/>
      <stop offset="1" stop-color="#fff" stop-opacity="0"/>
    </linearGradient>
  </defs>
</svg>
